<?xml version="1.0" encoding="utf-8"?>
<svg width="32" height="32" viewBox="0 0 32 32" fill="none" xmlns="http://www.w3.org/2000/svg">
  <!-- Coffee Cup Base -->
  <path d="M8 12H24C25.5 12 26 13.5 26 15V21C26 23 25 24 23 24H9C7 24 6 23 6 21V15C6 13.5 6.5 12 8 12Z" fill="#8B4513" stroke="#5D4037" stroke-width="1.5"/>
  
  <!-- Coffee Liquid -->
  <path d="M8 15H24C25 15 25.5 15.5 25.5 16.5V20C25.5 21 25 21.5 24 21.5H8C7 21.5 6.5 21 6.5 20V16.5C6.5 15.5 7 15 8 15Z" fill="#6D4C41"/>
  
  <!-- Coffee Surface -->
  <path d="M9 16H23C23.5 16 24 16.5 24 17V19C24 19.5 23.5 20 23 20H9C8.5 20 8 19.5 8 19V17C8 16.5 8.5 16 9 16Z" fill="#5D4037"/>
  
  <!-- Handle -->
  <path d="M24 14C26 14 27 15 27 17V19C27 21 26 22 24 22" stroke="#5D4037" stroke-width="2" fill="none" stroke-linecap="round"/>
  
  <!-- Steam 1 -->
  <path d="M12 8C12 6 13 5 15 5" stroke="#8D6E63" stroke-width="1.5" fill="none" stroke-linecap="round" opacity="0.7"/>
  
  <!-- Steam 2 -->
  <path d="M16 7C16 5 17 4 19 4" stroke="#8D6E63" stroke-width="1.5" fill="none" stroke-linecap="round" opacity="0.8"/>
  
  <!-- Steam 3 -->
  <path d="M20 8C20 6 21 5 23 5" stroke="#8D6E63" stroke-width="1.5" fill="none" stroke-linecap="round" opacity="0.6"/>
  
  <!-- Coffee Bean 1 -->
  <ellipse cx="14" cy="18" rx="1.2" ry="0.8" fill="#3E2723" transform="rotate(-30 14 18)"/>
  
  <!-- Coffee Bean 2 -->
  <ellipse cx="18" cy="17" rx="1.2" ry="0.8" fill="#3E2723" transform="rotate(15 18 17)"/>
</svg>