<?xml version="1.0" encoding="UTF-8"?>
<svg xmlns="http://www.w3.org/2000/svg" xmlns:xlink="http://www.w3.org/1999/xlink" width="2113" height="2113" viewBox="0 0 2113 2113">
<path fill-rule="evenodd" fill="rgb(100%, 100%, 100%)" fill-opacity="1" d="M 1 0 L 2113 0 L 2113 2112 L 1 2112 L 1 0 "/>
<path fill-rule="evenodd" fill="rgb(43.138123%, 28.637695%, 16.868591%)" fill-opacity="1" d="M 785.238281 1739.316406 C 785.175781 1739.4375 785.113281 1739.558594 785.054688 1739.683594 C 781.503906 1745.691406 776.558594 1750.464844 771 1754.042969 C 770.226562 1751.667969 769.496094 1749.351562 768.753906 1746.914062 C 760.785156 1720.59375 752.929688 1692.617188 745.878906 1663.367188 C 742.148438 1648.808594 739.175781 1633.800781 735.710938 1618.730469 C 732.851562 1603.511719 729.515625 1588.164062 726.945312 1572.597656 C 724.363281 1556.984375 721.59375 1541.277344 719.632812 1525.40625 L 716.421875 1501.582031 L 713.894531 1477.605469 C 710.492188 1445.601562 708.8125 1413.441406 707.839844 1381.757812 C 707.585938 1365.917969 707.761719 1350.183594 707.6875 1334.585938 C 708.308594 1319.039062 708.917969 1303.675781 709.503906 1288.570312 C 710.734375 1273.484375 711.910156 1258.644531 713.085938 1244.101562 C 714.847656 1229.628906 716.5625 1215.441406 718.226562 1201.683594 C 720.492188 1187.925781 722.695312 1174.59375 724.832031 1161.6875 C 726.960938 1148.734375 730.066406 1136.476562 732.476562 1124.542969 C 733.808594 1118.625 734.925781 1112.75 736.316406 1107.089844 C 737.800781 1101.46875 739.265625 1095.960938 740.699219 1090.601562 C 743.617188 1079.910156 746.121094 1069.660156 748.925781 1060.171875 C 755.0625 1041.351562 759.996094 1024.738281 764.796875 1011.328125 C 774.894531 984.660156 780.664062 969.410156 780.664062 969.410156 C 780.664062 969.410156 773.8125 984.230469 761.871094 1010.191406 C 756.101562 1023.261719 750.011719 1039.511719 742.507812 1058.019531 C 739.050781 1067.359375 735.789062 1077.460938 732.082031 1088.039062 C 730.300781 1093.351562 728.40625 1098.800781 726.53125 1104.359375 C 724.714844 1109.960938 723.171875 1115.769531 721.429688 1121.671875 C 718.15625 1133.507812 714.105469 1145.746094 711.054688 1158.644531 C 707.992188 1171.578125 704.777344 1184.933594 701.527344 1198.679688 C 698.820312 1212.554688 696.058594 1226.824219 693.269531 1241.382812 C 691.042969 1256.113281 688.75 1271.117188 686.441406 1286.378906 C 684.773438 1301.734375 683.042969 1317.363281 681.292969 1333.179688 C 680.242188 1349.039062 678.933594 1365.113281 678.109375 1381.359375 C 676.78125 1413.816406 676.191406 1446.921875 677.382812 1479.976562 L 678.234375 1504.773438 L 679.808594 1529.488281 C 680.671875 1545.9375 682.398438 1562.261719 683.933594 1578.519531 C 685.433594 1594.765625 687.742188 1610.773438 689.609375 1626.667969 C 692.074219 1642.449219 694.109375 1658.167969 696.863281 1673.449219 C 701.25 1699.472656 706.289062 1724.570312 711.574219 1748.609375 C 709.769531 1747.730469 707.949219 1746.882812 706.164062 1745.972656 C 451.695312 1616.578125 402.480469 1202.769531 596.246094 821.710938 C 678.589844 659.789062 791.546875 529.859375 913.785156 443.878906 C 1079.171875 327.488281 1261.519531 291.621094 1407.859375 366.03125 C 1426.070312 375.289062 1443.171875 386.050781 1459.269531 398.101562 C 1437.359375 403.089844 1411.78125 410.199219 1383.53125 420.390625 C 1351.390625 432.011719 1315.75 447.730469 1278.699219 469.210938 C 1241.75 490.761719 1203.539062 518.421875 1167.511719 553.359375 C 1131.539062 588.261719 1097.808594 630.589844 1070.949219 679.429688 C 1067.28125 685.378906 1064.390625 691.730469 1061.238281 698.011719 C 1058.179688 704.339844 1055.070312 710.671875 1051.980469 717.050781 C 1046.25 729.980469 1041.269531 743.351562 1035.910156 756.671875 C 1031.378906 770.25 1027.070312 784.019531 1022.671875 797.851562 C 1019.371094 811.921875 1016.070312 826.058594 1012.769531 840.28125 C 1010.429688 854.621094 1008.101562 869.03125 1005.75 883.46875 C 1004.230469 897.949219 1002.960938 912.5 1001.828125 927.109375 C 1001.089844 941.679688 1001.160156 956.25 1000.820312 970.851562 L 1000.589844 990.730469 L 1000.46875 1011.070312 C 1000.699219 1025.078125 999.972656 1037.089844 999.589844 1049.769531 C 999.324219 1056.070312 999.253906 1062.28125 998.835938 1068.640625 L 997.421875 1087.929688 L 996 1107.148438 L 994.074219 1126.304688 C 992.851562 1139.0625 991.667969 1151.808594 989.722656 1164.402344 C 987.960938 1177.027344 986.464844 1189.632812 984.070312 1202.066406 C 981.964844 1214.535156 980.328125 1227.050781 977.691406 1239.285156 C 973.054688 1263.921875 967.453125 1288.066406 961.769531 1311.835938 C 950.003906 1359.273438 936.226562 1404.738281 921.121094 1447.351562 C 906.128906 1490.019531 889.976562 1529.890625 873.785156 1566.308594 C 871.410156 1571.660156 869.042969 1576.902344 866.695312 1582.117188 C 836.753906 1647.761719 807.382812 1701.390625 785.238281 1739.316406 "/>
<path fill-rule="evenodd" fill="rgb(43.138123%, 28.637695%, 16.868591%)" fill-opacity="1" d="M 1154.140625 1698.1875 C 1029.058594 1773.574219 897.277344 1802.890625 780.640625 1773.777344 C 787.28125 1767.773438 794.683594 1760.863281 802.671875 1752.875 C 819.855469 1735.875 839.964844 1714.335938 861.617188 1688.398438 C 877.910156 1668.808594 895.039062 1646.667969 912.398438 1622.054688 C 918.109375 1613.976562 923.785156 1605.652344 929.5 1597.042969 C 952.613281 1562.160156 975.695312 1522.914062 997.207031 1479.710938 C 1018.601562 1436.515625 1038.558594 1389.394531 1055.269531 1339.128906 C 1063.800781 1314.03125 1071.230469 1288.101562 1077.910156 1261.605469 C 1084.679688 1235.109375 1090.558594 1208.015625 1095.019531 1180.417969 C 1097.621094 1166.683594 1099.441406 1152.757812 1101.308594 1138.800781 C 1102.230469 1131.824219 1103.300781 1124.835938 1104.078125 1117.824219 L 1105.910156 1096.691406 L 1107.730469 1075.488281 C 1108.261719 1068.378906 1108.449219 1061.019531 1108.851562 1053.789062 C 1109.441406 1039.371094 1110.429688 1024.28125 1110.210938 1011.140625 L 1110.070312 969.960938 C 1110.28125 957.46875 1110.019531 944.929688 1110.46875 932.511719 C 1111.449219 920.160156 1112.160156 907.808594 1112.859375 895.480469 C 1114.390625 883.308594 1115.910156 871.179688 1117.410156 859.070312 C 1119.730469 847.171875 1121.988281 835.300781 1124.289062 823.5 C 1127.261719 811.878906 1130.238281 800.328125 1133.179688 788.839844 C 1137 777.660156 1140.359375 766.328125 1144.441406 755.378906 C 1149.078125 744.691406 1152.621094 733.519531 1157.640625 723.128906 C 1176.679688 681.109375 1200.878906 642.808594 1228.070312 609.140625 C 1255.179688 575.398438 1284.96875 546.058594 1314.878906 521.199219 C 1344.761719 496.269531 1374.53125 475.578125 1401.921875 458.390625 C 1402.210938 458.210938 1402.488281 458.019531 1402.78125 457.828125 C 1450.609375 427.890625 1513.300781 442.058594 1545.070312 488.671875 C 1672.191406 675.121094 1669.101562 992.691406 1517.769531 1290.304688 C 1425.179688 1472.394531 1293.828125 1614.027344 1154.140625 1698.1875 "/>
<path fill-rule="evenodd" fill="rgb(99.609375%, 99.609375%, 99.609375%)" fill-opacity="1" d="M 1277.058594 392.890625 C 1277.058594 392.890625 1272.390625 392.621094 1263.628906 392.671875 C 1254.871094 392.820312 1241.921875 392.851562 1225.601562 394.511719 C 1209.238281 396 1189.378906 398.320312 1166.878906 402.820312 C 1155.570312 404.820312 1143.699219 407.679688 1131.121094 410.539062 C 1124.839844 412.011719 1118.488281 413.921875 1111.980469 415.710938 C 1105.410156 417.449219 1098.769531 419.410156 1092.03125 421.648438 C 1064.878906 429.820312 1036.171875 441.050781 1006.539062 454.640625 C 976.972656 468.320312 946.710938 484.929688 916.757812 504.328125 C 909.3125 509.210938 902.042969 514.511719 894.585938 519.660156 C 887.097656 524.789062 879.625 530.03125 872.488281 535.820312 C 865.265625 541.480469 857.949219 547.160156 850.652344 552.878906 C 843.488281 558.808594 836.683594 565.210938 829.613281 571.390625 C 815.3125 583.539062 802.410156 597.371094 788.859375 610.671875 C 782.011719 617.238281 776.054688 624.679688 769.601562 631.671875 C 763.339844 638.820312 756.792969 645.761719 750.734375 653.101562 C 726.988281 682.851562 704.546875 713.640625 685.105469 745.570312 C 675.480469 761.578125 665.492188 777.238281 657.617188 793.78125 C 649.390625 810.109375 640.53125 825.878906 633.746094 842.289062 C 630.132812 850.378906 626.574219 858.421875 623.03125 866.371094 C 621.273438 870.359375 619.523438 874.308594 617.753906 878.238281 C 616.046875 882.199219 614.734375 886.289062 613.203125 890.269531 C 607.363281 906.261719 601.621094 921.898438 596.050781 937.128906 C 586.617188 968.128906 576.964844 997.160156 571.152344 1024.78125 C 567.914062 1038.5 564.816406 1051.640625 561.871094 1064.101562 C 559.644531 1076.738281 557.558594 1088.71875 555.566406 1099.980469 C 553.621094 1111.230469 551.816406 1121.753906 550.152344 1131.472656 C 548.707031 1141.222656 547.914062 1150.273438 546.898438 1158.414062 C 544.96875 1174.667969 543.875 1187.457031 542.949219 1196.175781 C 542.042969 1204.867188 541.585938 1209.515625 541.585938 1209.515625 C 541.585938 1209.515625 542.738281 1204.992188 544.894531 1196.480469 C 547.003906 1187.980469 550.339844 1175.570312 554.082031 1159.742188 C 556.039062 1151.851562 557.917969 1143.046875 560.550781 1133.59375 C 563.21875 1124.15625 566.140625 1113.976562 569.210938 1103.070312 C 572.296875 1092.210938 575.5625 1080.671875 578.988281 1068.460938 C 582.9375 1056.429688 587.03125 1043.800781 591.347656 1030.589844 C 595.601562 1017.421875 599.90625 1003.628906 605.566406 989.800781 C 610.757812 975.851562 616.148438 961.421875 621.671875 946.578125 C 627.976562 932.089844 634.40625 917.179688 641.007812 901.960938 C 647.476562 886.691406 655.445312 871.761719 662.777344 856.21875 C 669.902344 840.558594 679.011719 825.640625 687.496094 810.160156 C 695.738281 794.550781 705.714844 779.730469 715.046875 764.371094 C 734.070312 733.859375 755.976562 704.660156 778.921875 676.398438 C 784.628906 669.308594 790.808594 662.628906 796.722656 655.71875 C 802.820312 648.980469 808.390625 641.769531 814.890625 635.441406 C 827.703125 622.621094 839.855469 609.21875 853.40625 597.488281 C 879.433594 572.851562 907.199219 551.019531 934.816406 530.898438 C 963.023438 511.640625 990.921875 493.75 1018.710938 479 C 1046.578125 464.53125 1073.390625 451.398438 1099.050781 441.351562 C 1124.679688 431.160156 1148.578125 422.691406 1170.171875 416.371094 C 1191.730469 409.898438 1210.839844 405.089844 1226.679688 401.671875 C 1258.421875 394.691406 1277.058594 392.898438 1277.058594 392.890625 "/>
<path fill-rule="evenodd" fill="rgb(99.609375%, 99.609375%, 99.609375%)" fill-opacity="1" d="M 1535.328125 588.148438 C 1530.191406 571.410156 1525.089844 557.058594 1520.660156 545.308594 C 1511.859375 521.828125 1505.410156 509.011719 1505.410156 509.011719 C 1505.410156 509.011719 1506.199219 512.480469 1507.71875 519.011719 C 1509.261719 525.5 1511.191406 535.140625 1513.691406 547.308594 C 1516.230469 559.5 1518.761719 574.390625 1521.761719 591.359375 C 1524.53125 608.410156 1527.449219 627.640625 1530.191406 648.648438 C 1532.980469 669.640625 1535.089844 692.46875 1537.351562 716.53125 C 1539.160156 740.640625 1540.648438 766.058594 1541.199219 792.339844 C 1541.761719 805.480469 1541.449219 818.839844 1541.640625 832.339844 C 1541.339844 845.828125 1541.210938 859.511719 1540.628906 873.25 C 1539.898438 886.988281 1539.339844 900.828125 1538.058594 914.679688 L 1536.390625 935.511719 L 1533.949219 956.269531 C 1531.011719 984.03125 1526.089844 1011.480469 1520.96875 1038.429688 C 1517.941406 1051.800781 1514.929688 1065.058594 1511.96875 1078.171875 C 1508.390625 1091.128906 1504.878906 1103.949219 1501.421875 1116.542969 C 1497.410156 1128.988281 1493.511719 1141.238281 1489.660156 1153.226562 C 1485.359375 1165.078125 1481.109375 1176.652344 1477.011719 1187.933594 C 1472.328125 1199.019531 1467.769531 1209.789062 1463.378906 1220.222656 C 1458.921875 1230.636719 1453.949219 1240.402344 1449.539062 1249.980469 C 1445.28125 1259.648438 1440.21875 1268.382812 1435.730469 1276.90625 C 1431.171875 1285.371094 1427.179688 1293.660156 1422.769531 1301.046875 C 1413.71875 1315.628906 1406.578125 1328.992188 1399.769531 1339.382812 C 1386.050781 1360.0625 1378.429688 1372.28125 1378.429688 1372.28125 C 1378.429688 1372.28125 1388.449219 1362.167969 1405.558594 1343.742188 C 1414.050781 1334.472656 1423.441406 1322.464844 1434.441406 1308.777344 C 1439.890625 1301.878906 1445.03125 1294.097656 1450.808594 1286.101562 C 1456.511719 1278.054688 1462.480469 1269.535156 1467.921875 1260.179688 C 1473.460938 1250.875 1479.589844 1241.351562 1485.320312 1231.136719 C 1490.691406 1220.730469 1496.269531 1209.976562 1502 1198.933594 C 1507.160156 1187.578125 1512.441406 1175.917969 1517.828125 1163.984375 C 1522.988281 1151.957031 1527.328125 1139.285156 1532.269531 1126.578125 C 1536.808594 1113.746094 1540.710938 1100.460938 1544.988281 1087.101562 C 1548.660156 1073.578125 1552.351562 1059.871094 1555.648438 1045.960938 C 1561.839844 1018.03125 1567.019531 989.410156 1570.28125 960.558594 L 1572.671875 938.941406 L 1574.25 917.300781 C 1575.550781 902.898438 1575.570312 888.519531 1576.070312 874.269531 C 1576.5 845.75 1575.699219 817.710938 1573.53125 790.710938 C 1571.761719 763.671875 1568.039062 737.75 1564.359375 713.269531 C 1560.488281 688.800781 1555.871094 665.859375 1550.75 644.878906 C 1546 623.859375 1540.398438 604.859375 1535.328125 588.148438 "/>
</svg>
